<svg xmlns="http://www.w3.org/2000/svg" data-name="Layer 1" fill="#589361"
     viewBox="0 0 100 100" x="0px" y="0px">
<path d="M23.64,40H30.7l-3.34,7.35a4,4,0,1,0,7.28,3.31L39.49,40a5.64,5.64,0,0,0-5.14-8H27.3l3.34-7.34a4,4,0,1,0-7.28-3.31L18.51,32a5.64,5.64,0,0,0,5.14,8Z"/><path d="M82,71.89A97.21,97.21,0,0,0,71.76,28.58,11.89,11.89,0,0,0,61.06,22H48a4,4,0,0,0,0,8H61.06a4,4,0,0,1,3.55,2.16A88.73,88.73,0,0,1,74,71.89V73H65.77L64,68.24A5,5,0,0,0,59.31,65H42.69A5,5,0,0,0,38,68.24L36.23,73H28V70.89q0-4.26.41-8.49a4,4,0,1,0-7.95-.79Q20,66.24,20,70.89V73a8,8,0,0,0,8,8h8.23a8,8,0,0,0,7.49-5.19L44.77,73H57.23l1.05,2.81A8,8,0,0,0,65.77,81H74a8,8,0,0,0,8-8Z"/></svg>